# xmcd
#
# Track frame offsets:
# 150
# 12165
# 22895
# 38489
# 45571
# 56149
# 66661
# 77800
# 85944
# 98030
# 108095
#
# Disc length: 1640 seconds
#
#
# Revision: 0
# Processed by: cddbd v1.5.1PL2 Copyright (c) Steve Scherf et al.
# Submitted via: FreeRIP 2.945 
#
DISCID=7f06660b
DTITLE=Gene Watson - Gene Watson
DYEAR=1969
DGENRE=Country
TTITLE0=If I'm A Fool For Leaving
TTITLE1=It's Just A Matter Of Time
TTITLE2=I'll Feel Fine
TTITLE3=Walking Back To Birmingham
TTITLE4=I Feel A Sin Coming On
TTITLE5=Listen They're Playing My Song
TTITLE6=This Song Is Just For You
TTITLE7=When My Daddy Danced
TTITLE8=I'm Not Strong Enough
TTITLE9=Two Right People
TTITLE10=My Eyes Are Jealous
EXTD=
EXTT0=
EXTT1=
EXTT2=
EXTT3=
EXTT4=
EXTT5=
EXTT6=
EXTT7=
EXTT8=
EXTT9=
EXTT10=
PLAYORDER=
